<?xml version="1.0" encoding="utf-8"?>
<!-- Generator: Adobe Illustrator 27.0.1, SVG Export Plug-In . SVG Version: 6.00 Build 0)  -->
<svg version="1.1" id="Capa_1" xmlns="http://www.w3.org/2000/svg" xmlns:xlink="http://www.w3.org/1999/xlink" x="0px" y="0px"
	 viewBox="0 0 2933.3 748" style="enable-background:new 0 0 2933.3 748;" xml:space="preserve">
<style type="text/css">
	.st0{fill:#3F3F3F;}
</style>
<g>
	<path d="M1435.3,525.6L320.6,561.4l140-157.2c66.2-74,132.1-148.4,198.7-221.3c16-17.3,32-34.5,48.1-51.2c-1,11.6-2.1,23.2-3,34.8
		c-9,98.3-19.6,197.4-27.8,296.5l-0.3,3.6c-0.5,6.6,2,13.4,7.3,18.1c9.1,8.1,23,7.3,31.1-1.7l326.3-299.5l-57.5,255.9l-0.3,1.5
		c-0.8,3.6,0.2,7.5,3,10.4c4.4,4.4,11.5,4.5,16,0.1l237.1-178.8l-81.9,213.2c-2,5.2,0,11.3,5,14.2c5.5,3.2,12.6,1.3,15.8-4.2
		L1368.5,169c9.2-15.8,7.1-36.5-6.4-50.1c-16.2-16.2-42.4-16.3-58.6-0.1l-0.4,0.3l-280.4,279.1l110.5-306.4l0.4-1.6
		c3.1-11.6,0-24.5-9.1-33.7c-13.6-13.6-35.7-13.5-49.3,0.1L737.9,395.3c15.5-72.8,29-145.9,40.5-219.8c3.9-24.9,7.2-49.8,9.9-75.4
		c1.4-12.8,2.6-25.7,3.2-39.9c0.2-3.4,0.2-7.3,0.2-11.4c0-1.9,0-4-0.3-6.9l-0.4-4l-0.2-2l-0.6-3.2c-0.5-2-1.1-4.1-2-6.1
		c-1.6-4.1-4-8.1-6.8-11.5c-5.5-6.8-12.1-10.8-20.9-13.4C756.2,0.5,751.9,0,748,0c-2.5,0.1-3.1,0.2-4.7,0.4
		c-5.1,0.6-12.4,3.1-13.1,3.6c-2.1,0.9-4.2,2-6.2,3.1l-3.6,2.2c-4.8,3.1-7.9,5.4-10.9,7.8C686.3,35.8,669.3,53,650.8,71
		c-18.1,17.9-35.6,35.9-53.1,53.9C528,197,460.6,270.6,394.3,345.1c-64.9,72.2-128.4,145.3-191.1,219.5l-154.3,5.5
		c-0.7,0-1.7,0.1-2.4,0.1C18.7,572.3-1.9,596.4,0.1,624c2.1,27.6,26.2,48.3,53.8,46.2l1382.6-121.6c6.1-0.5,10.8-5.7,10.7-11.8
		C1447,530.4,1441.7,525.4,1435.3,525.6z"/>
	<g>
		<path d="M2093.6,47.9h27.6l45.5,78.8h1.7l45.5-78.8h27.8v148.8h-27.8v-73.4l1.7-24.9h-1.7l-37.8,66.7h-16.8l-38-66.7h-1.7
			l1.7,24.9v73.4h-27.6V47.9z"/>
		<path d="M2328,185.9h-1.7c-3.2,3.9-7,7.2-11.5,10c-4.5,2.8-10.3,4.2-17.4,4.2c-5.3,0-10.2-0.9-14.9-2.6c-4.6-1.7-8.7-4.1-12.2-7.2
			c-3.5-3-6.2-6.7-8.1-11c-1.9-4.3-2.9-9-2.9-14.1c0-5.3,1-10,3.1-14.2c2.1-4.2,5-7.9,8.7-10.9c3.7-3,8.1-5.4,13.2-7
			c5.1-1.6,10.6-2.4,16.5-2.4c6.6,0,12.1,0.5,16.4,1.6c4.3,1,7.8,2.1,10.6,3.2v-3.1c0-5.4-2.1-9.9-6.4-13.4c-4.3-3.5-9.6-5.3-16-5.3
			c-9.4,0-17.4,3.9-23.9,11.8l-19.7-13.5c10.8-13.6,25.6-20.4,44.3-20.4c15.8,0,27.8,3.7,36.2,11.1c8.3,7.4,12.5,18.4,12.5,32.9
			v61.1H2328V185.9z M2328,155.4c-3.2-1.5-6.5-2.7-9.9-3.6c-3.4-0.9-7.1-1.4-11.1-1.4c-6.5,0-11.5,1.4-15.1,4.3
			c-3.5,2.8-5.3,6.3-5.3,10.5c0,4.2,1.7,7.5,5.1,10c3.4,2.5,7.3,3.7,11.7,3.7c3.6,0,6.9-0.7,10-2c3-1.3,5.6-3,7.8-5.2
			c2.1-2.1,3.8-4.6,5-7.5C2327.4,161.4,2328,158.4,2328,155.4z"/>
		<path d="M2401.9,110.7h1.7c2.8-5.1,6.8-9.2,12.2-12.4c5.3-3.1,11.3-4.7,17.8-4.7c2.4,0,4.2,0.1,5.6,0.2c1.4,0.1,2.7,0.4,3.9,0.8
			v27c-1.5-0.7-3.2-1.2-5.1-1.7c-1.9-0.4-4.1-0.6-6.8-0.6c-8.6,0-15.3,2.6-20.3,7.8c-4.9,5.2-7.4,12.3-7.4,21.3v49.9h-27.2V96.6
			h25.6V110.7z M2473.2,118.2h-17.9V94.9h17.9V63.7h27.2v31.2h24.9v23.3h-24.9v40.7c0,2.4,0.2,4.7,0.7,6.7c0.5,2.1,1.4,3.8,2.8,5.2
			c1.9,2.3,4.7,3.4,8.3,3.4c2.4,0,4.2-0.2,5.6-0.7c1.4-0.5,2.7-1.1,3.9-2l7.7,23.9c-3.2,1.5-6.6,2.7-10.3,3.4
			c-3.7,0.8-7.7,1.1-12.2,1.1c-5.1,0-9.7-0.8-13.8-2.4c-4.1-1.6-7.5-3.9-10.3-6.7c-6.5-6.4-9.8-15.4-9.8-27.1V118.2z"/>
		<path d="M2548,196.7V94.9h27.2v101.8H2548z M2550.3,74.5l8.7-28.3h31.8l-18.7,28.3H2550.3z"/>
		<path d="M2625.7,108.2h1.7c3.2-5.1,7.5-9.2,12.9-12.2c5.4-3,11.6-4.5,18.5-4.5c6.4,0,12,1,16.8,3.1c4.8,2.1,8.8,5,11.9,8.8
			c3.1,3.8,5.5,8.4,7.1,13.7c1.6,5.3,2.4,11.3,2.4,17.8v61.7h-27.2v-58.4c0-7.3-1.6-12.8-4.9-16.3c-3.3-3.5-8-5.3-14.2-5.3
			c-3.7,0-7,0.8-9.9,2.4c-2.8,1.6-5.3,3.7-7.3,6.4c-2,2.7-3.5,5.9-4.6,9.6c-1,3.7-1.6,7.6-1.6,11.7v49.9h-27.2V94.9h25.6V108.2z"/>
		<path d="M2093.6,446.1V297.3h52.4c7.1,0,13.7,1.1,19.8,3.4c6.2,2.3,11.5,5.5,16.1,9.7c4.6,4.2,8.2,9.1,10.8,14.9
			c2.6,5.8,3.9,12.1,3.9,19c0,7.1-1.3,13.5-3.9,19.2c-2.6,5.8-6.2,10.7-10.8,14.9c-4.6,4.2-9.9,7.4-16.1,9.7
			c-6.2,2.3-12.8,3.4-19.8,3.4h-24.3v54.7H2093.6z M2146.3,364.8c7.3,0,12.9-2.1,16.6-6.2c3.7-4.2,5.6-8.9,5.6-14.3
			c0-2.6-0.5-5.2-1.4-7.7c-0.9-2.5-2.3-4.7-4.2-6.5s-4.2-3.4-7-4.5c-2.8-1.1-6-1.7-9.8-1.7h-24.7v40.9H2146.3z"/>
		<path d="M2228.4,330.6c-2.4,0-4.6-0.4-6.8-1.4c-2.1-0.9-4-2.1-5.6-3.7c-1.6-1.6-2.8-3.4-3.7-5.5c-0.9-2.1-1.4-4.4-1.4-6.9
			c0-2.5,0.4-4.8,1.4-6.9c0.9-2.1,2.1-3.9,3.7-5.5c1.6-1.6,3.5-2.8,5.6-3.7c2.1-0.9,4.4-1.4,6.8-1.4c4.8,0,9,1.7,12.5,5.1
			c3.5,3.4,5.2,7.5,5.2,12.4c0,4.9-1.7,9-5.2,12.4C2237.4,328.9,2233.3,330.6,2228.4,330.6z M2214.9,446.1V344.3h27.2v101.8H2214.9z
			"/>
		<path d="M2307.4,449.4c-6.6,0-12.6-0.8-17.8-2.5c-5.2-1.7-9.7-3.8-13.5-6.5c-3.8-2.7-7-5.8-9.7-9.4c-2.6-3.5-4.6-7.1-6-10.7
			l24.3-10.4c2.4,5.3,5.5,9.2,9.5,11.7c3.9,2.6,8.3,3.8,13.2,3.8c5,0,8.9-0.9,11.8-2.7c2.9-1.8,4.4-3.9,4.4-6.4c0-2.8-1.2-5-3.6-6.8
			c-2.4-1.7-6.6-3.3-12.6-4.7l-14.3-3.1c-3.2-0.7-6.5-1.8-9.9-3.3c-3.4-1.5-6.5-3.5-9.2-5.8c-2.8-2.4-5.1-5.2-6.9-8.5
			c-1.8-3.3-2.7-7.2-2.7-11.6c0-5,1.1-9.4,3.2-13.3c2.1-3.9,5.1-7.2,8.8-9.9c3.7-2.7,8.1-4.8,13.2-6.2c5.1-1.5,10.5-2.2,16.3-2.2
			c9.7,0,18.4,1.9,26,5.7c7.6,3.8,13.2,9.9,16.8,18.2l-23.5,9.6c-1.9-4-4.8-6.9-8.5-8.7c-3.7-1.8-7.5-2.7-11.2-2.7
			c-3.9,0-7.3,0.8-10.2,2.4c-2.9,1.6-4.4,3.6-4.4,6.1c0,2.4,1.2,4.2,3.6,5.6c2.4,1.4,5.7,2.6,9.9,3.7l15.6,3.7
			c10.4,2.5,18.1,6.5,23.2,11.9c5.1,5.5,7.6,11.9,7.6,19.4c0,4.4-1,8.7-3.1,12.7c-2.1,4-5,7.6-8.8,10.7c-3.8,3.1-8.4,5.6-13.7,7.4
			C2319.8,448.5,2313.9,449.4,2307.4,449.4z"/>
		<path d="M2465.1,420.1c-4.4,8.6-10.6,15.6-18.6,21.1c-8,5.5-17.9,8.2-29.8,8.2c-7.9,0-15.1-1.4-21.7-4.1
			c-6.6-2.7-12.3-6.5-17-11.3c-4.8-4.8-8.5-10.6-11.2-17.1c-2.7-6.6-4.1-13.8-4.1-21.7c0-7.9,1.4-15.2,4.1-21.8
			c2.7-6.6,6.4-12.4,11.2-17.1s10.5-8.5,17-11.2c6.6-2.7,13.8-4.1,21.7-4.1c11.8,0,21.7,2.7,29.7,8.1c8,5.4,13.9,12.4,17.7,21
			l-24.9,10.4c-2.4-4.7-5.4-8.3-9-10.7c-3.7-2.4-8.3-3.6-13.8-3.6c-3.6,0-7,0.7-10.2,2.1c-3.2,1.4-6,3.3-8.4,5.8
			c-2.4,2.5-4.3,5.5-5.7,9.1c-1.4,3.6-2.1,7.6-2.1,12.1c0,4.4,0.7,8.5,2.1,12.1c1.4,3.6,3.3,6.6,5.7,9.1c2.4,2.5,5.2,4.4,8.4,5.8
			c3.2,1.4,6.6,2.1,10.2,2.1c5.7,0,10.5-1.3,14.4-3.8c3.9-2.6,7.1-6.3,9.5-11.1L2465.1,420.1z"/>
		<path d="M2496.9,330.6c-2.4,0-4.6-0.4-6.8-1.4c-2.1-0.9-4-2.1-5.6-3.7c-1.6-1.6-2.8-3.4-3.7-5.5c-0.9-2.1-1.4-4.4-1.4-6.9
			c0-2.5,0.4-4.8,1.4-6.9c0.9-2.1,2.1-3.9,3.7-5.5c1.6-1.6,3.5-2.8,5.6-3.7c2.1-0.9,4.4-1.4,6.8-1.4c4.8,0,9,1.7,12.5,5.1
			c3.5,3.4,5.2,7.5,5.2,12.4c0,4.9-1.7,9-5.2,12.4C2505.9,328.9,2501.7,330.6,2496.9,330.6z M2483.4,446.1V344.3h27.2v101.8H2483.4z
			"/>
		<path d="M2545.7,367.5h-17.9v-23.3h17.9v-31.2h27.2v31.2h24.9v23.3h-24.9v40.7c0,2.4,0.2,4.7,0.7,6.7c0.5,2.1,1.4,3.8,2.8,5.2
			c1.9,2.3,4.7,3.4,8.3,3.4c2.4,0,4.2-0.2,5.6-0.7c1.4-0.5,2.7-1.1,3.9-2l7.7,23.9c-3.2,1.5-6.6,2.7-10.3,3.4
			c-3.7,0.8-7.7,1.1-12.2,1.1c-5.1,0-9.7-0.8-13.8-2.4c-4.1-1.6-7.5-3.9-10.3-6.7c-6.5-6.4-9.8-15.4-9.8-27.1V367.5z"/>
		<path d="M2713.2,421.6c-4.7,8.3-11,15-19,20.2c-8,5.1-17.7,7.7-29.2,7.7c-7.8,0-14.9-1.4-21.5-4.1c-6.6-2.7-12.3-6.5-17.1-11.3
			c-4.9-4.8-8.6-10.6-11.3-17.1c-2.7-6.6-4.1-13.8-4.1-21.7c0-7.3,1.3-14.3,3.9-20.9c2.6-6.6,6.3-12.3,11-17.2
			c4.7-4.9,10.3-8.8,16.7-11.7c6.4-2.9,13.5-4.4,21.3-4.4c8.2,0,15.4,1.4,21.8,4.1c6.4,2.7,11.7,6.4,16,11.2
			c4.3,4.8,7.5,10.4,9.8,16.9c2.2,6.5,3.3,13.6,3.3,21.2c0,1,0,1.8,0,2.5c-0.1,0.8-0.2,1.6-0.2,2.3c-0.1,0.7-0.2,1.5-0.2,2.3h-76.7
			c0.6,4.2,1.7,7.7,3.4,10.7c1.7,3,3.9,5.5,6.4,7.5c2.6,2,5.4,3.5,8.4,4.4c3,0.9,6.2,1.4,9.4,1.4c6.2,0,11.4-1.4,15.5-4.3
			c4.1-2.8,7.3-6.4,9.7-10.7L2713.2,421.6z M2688.5,382.1c-0.1-1.8-0.7-3.8-1.8-6c-1-2.2-2.6-4.3-4.6-6.2c-2-1.9-4.5-3.5-7.5-4.8
			c-3-1.2-6.5-1.9-10.7-1.9c-5.8,0-10.9,1.7-15.4,5c-4.4,3.3-7.6,8-9.4,13.9H2688.5z"/>
		<path d="M2732.3,446.1V297.3h27.2v148.8H2732.3z"/>
		<path d="M2782.8,446.1V297.3h27.2v148.8H2782.8z"/>
		<path d="M2848.5,330.6c-2.4,0-4.6-0.4-6.8-1.4c-2.1-0.9-4-2.1-5.6-3.7c-1.6-1.6-2.8-3.4-3.7-5.5c-0.9-2.1-1.4-4.4-1.4-6.9
			c0-2.5,0.4-4.8,1.4-6.9c0.9-2.1,2.1-3.9,3.7-5.5c1.6-1.6,3.5-2.8,5.6-3.7c2.1-0.9,4.4-1.4,6.8-1.4c4.8,0,9,1.7,12.5,5.1
			c3.5,3.4,5.2,7.5,5.2,12.4c0,4.9-1.7,9-5.2,12.4C2857.5,328.9,2853.3,330.6,2848.5,330.6z M2835,446.1V344.3h27.2v101.8H2835z"/>
		<path class="st0" d="M2112.7,695.4h-19.1V546.7h19.1V695.4z"/>
		<path class="st0" d="M2158.4,546.7v148.8h-19.1V546.7H2158.4z"/>
		<path class="st0" d="M2271,695.4h-18.3v-14.1h-0.8c-2.9,5-7.4,9.1-13.4,12.5c-6,3.3-12.3,5-18.8,5c-12.5,0-22.1-3.6-28.8-10.7
			c-6.7-7.1-10.1-17.3-10.1-30.4v-64h19.1v62.8c0.4,16.6,8.8,24.9,25.1,24.9c7.6,0,14-3.1,19.1-9.2c5.1-6.2,7.7-13.5,7.7-22.1v-56.3
			h19.1V695.4z"/>
		<path class="st0" d="M2371.2,667.2c0,8.9-3.9,16.3-11.6,22.4c-7.8,6.1-17.5,9.1-29.3,9.1c-10.3,0-19.3-2.7-27-8
			c-7.8-5.3-13.3-12.4-16.6-21.1l17-7.3c2.5,6.1,6.1,10.8,10.9,14.2c4.8,3.4,10,5.1,15.7,5.1c6.1,0,11.2-1.3,15.3-3.9
			c4.1-2.6,6.1-5.7,6.1-9.4c0-6.5-5-11.3-15-14.3l-17.5-4.4c-19.8-5-29.7-14.5-29.7-28.7c0-9.3,3.8-16.7,11.3-22.3
			c7.5-5.6,17.2-8.4,29-8.4c9,0,17.1,2.1,24.4,6.4c7.3,4.3,12.4,10,15.3,17.2l-17,7.1c-1.9-4.3-5.1-7.7-9.5-10.1
			c-4.4-2.4-9.2-3.6-14.6-3.6c-5,0-9.5,1.2-13.4,3.7c-3.9,2.5-5.9,5.5-5.9,9.1c0,5.8,5.5,10,16.4,12.5l15.4,3.9
			C2361.1,641.6,2371.2,651.8,2371.2,667.2z"/>
		<path class="st0" d="M2427.1,697.1c-8.3,0-15.2-2.6-20.7-7.7c-5.5-5.1-8.3-12.3-8.4-21.4v-56.9h-17.9v-17.5h17.9v-31.2h19.1v31.2
			h24.9v17.5h-24.9v50.7c0,6.8,1.3,11.4,3.9,13.8c2.6,2.4,5.6,3.6,8.9,3.6c1.5,0,3-0.2,4.5-0.5c1.5-0.3,2.8-0.8,4.1-1.4l6,17
			C2439.5,696.2,2433.7,697.1,2427.1,697.1z"/>
		<path class="st0" d="M2479.4,695.4h-19.1V593.6h18.3v16.6h0.8c1.9-5.4,5.9-10,11.9-13.8c6-3.8,11.9-5.7,17.8-5.7
			c5.5,0,10.2,0.8,14.1,2.5l-5.8,18.5c-2.4-1-6.1-1.5-11.2-1.5c-7.2,0-13.5,2.9-18.8,8.7c-5.3,5.8-8,12.6-8,20.4V695.4z"/>
		<path class="st0" d="M2570.2,590.3c14.1,0,25.3,3.8,33.5,11.3c8.2,7.6,12.3,17.9,12.3,31.1v62.8h-18.3v-14.1h-0.8
			c-7.9,11.6-18.4,17.5-31.6,17.5c-11.2,0-20.6-3.3-28.2-10c-7.6-6.6-11.3-15-11.3-24.9c0-10.5,4-18.9,11.9-25.1
			c8-6.2,18.6-9.4,31.9-9.4c11.4,0,20.7,2.1,28.1,6.2v-4.4c0-6.6-2.6-12.3-7.9-16.9c-5.3-4.6-11.4-7-18.5-7
			c-10.7,0-19.1,4.5-25.4,13.5l-16.8-10.6C2538.4,597,2552.1,590.3,2570.2,590.3z M2545.5,664.3c0,5,2.1,9.1,6.3,12.5
			c4.2,3.3,9.2,5,14.9,5c8,0,15.2-3,21.5-8.9c6.3-6,9.5-13,9.5-21c-6-4.7-14.3-7.1-24.9-7.1c-7.8,0-14.2,1.9-19.4,5.6
			C2548.1,654.1,2545.5,658.7,2545.5,664.3z"/>
		<path class="st0" d="M2679.1,698.8c-13.3,0-24.7-5.3-34.3-15.8c-9.4-10.7-14.1-23.5-14.1-38.4c0-15,4.7-27.8,14.1-38.4
			c9.6-10.5,21-15.8,34.3-15.8c7.5,0,14.3,1.6,20.5,4.8c6.2,3.2,10.9,7.4,14.2,12.7h0.8l-0.8-14.1v-47h19.1v148.8h-18.3v-14.1h-0.8
			c-3.3,5.3-8.1,9.5-14.2,12.7C2693.4,697.2,2686.6,698.8,2679.1,698.8z M2682.3,681.3c9.4,0,17.1-3.4,23.1-10.2
			c6.2-6.8,9.4-15.7,9.4-26.6c0-10.7-3.1-19.5-9.4-26.4c-6.1-6.9-13.8-10.4-23.1-10.4c-9.1,0-16.8,3.5-23.1,10.4
			c-6.2,6.9-9.4,15.7-9.4,26.4c0,10.8,3.1,19.6,9.4,26.4C2665.4,677.9,2673.1,681.3,2682.3,681.3z"/>
		<path class="st0" d="M2749.4,644.5c0-15.7,4.9-28.6,14.8-38.9c10-10.3,22.5-15.4,37.6-15.4c15.1,0,27.6,5.1,37.4,15.4
			c10,10.3,15,23.2,15,38.9c0,15.8-5,28.7-15,38.9c-9.8,10.3-22.3,15.4-37.4,15.4c-15.1,0-27.6-5.1-37.6-15.4
			C2754.3,673.1,2749.4,660.2,2749.4,644.5z M2768.5,644.5c0,10.9,3.2,19.8,9.6,26.6c6.4,6.8,14.3,10.2,23.7,10.2
			c9.4,0,17.3-3.4,23.7-10.2c6.4-6.8,9.6-15.7,9.6-26.6c0-10.8-3.2-19.6-9.6-26.4c-6.5-6.9-14.4-10.4-23.7-10.4
			c-9.3,0-17.2,3.5-23.7,10.4C2771.7,624.9,2768.5,633.7,2768.5,644.5z"/>
		<path class="st0" d="M2888.6,695.4h-19.1V593.6h18.3v16.6h0.8c1.9-5.4,5.9-10,11.9-13.8c6-3.8,11.9-5.7,17.8-5.7
			c5.5,0,10.2,0.8,14.1,2.5l-5.8,18.5c-2.4-1-6.1-1.5-11.2-1.5c-7.2,0-13.5,2.9-18.8,8.7c-5.3,5.8-8,12.6-8,20.4V695.4z"/>
	</g>
	<rect x="1761.1" y="49.7" width="14.5" height="647.1"/>
</g>
</svg>
