<?xml version="1.0" encoding="utf-8"?>
<!-- Generator: Adobe Illustrator 27.0.1, SVG Export Plug-In . SVG Version: 6.00 Build 0)  -->
<svg version="1.1" id="Capa_1" xmlns="http://www.w3.org/2000/svg" xmlns:xlink="http://www.w3.org/1999/xlink" x="0px" y="0px"
	 viewBox="0 0 1471.8 1181.5" style="enable-background:new 0 0 1471.8 1181.5;" xml:space="preserve">
<style type="text/css">
	.st0{fill:#3F3F3F;}
</style>
<g>
	<path d="M1295.3,413.1l-876.2,28.1l110-123.5c52.1-58.1,103.8-116.7,156.2-174c12.5-13.6,25.1-27.1,37.8-40.3
		c-0.8,9.1-1.6,18.2-2.4,27.4c-7.1,77.3-15.4,155.1-21.9,233.1l-0.2,2.8c-0.4,5.2,1.5,10.5,5.7,14.2c7.1,6.4,18,5.7,24.4-1.4
		l256.5-235.4l-45.2,201.1l-0.3,1.2c-0.6,2.8,0.2,5.9,2.3,8.1c3.4,3.5,9.1,3.5,12.6,0.1l186.3-140.6l-64.4,167.6
		c-1.6,4.1,0,8.8,3.9,11.1c4.3,2.5,9.9,1.1,12.4-3.3l149.8-256.7c7.3-12.4,5.6-28.7-5-39.4c-12.7-12.7-33.3-12.8-46.1-0.1l-0.3,0.3
		L971,313l86.8-240.8l0.3-1.2c2.4-9.2,0-19.3-7.2-26.5c-10.7-10.7-28.1-10.6-38.7,0.1L747.1,310.7c12.2-57.2,22.8-114.7,31.8-172.8
		c3-19.6,5.6-39.2,7.8-59.3c1.1-10.1,2-20.2,2.5-31.3c0.1-2.7,0.2-5.7,0.1-9c0-1.5,0-3.2-0.3-5.4l-0.3-3.1l-0.2-1.6l-0.5-2.5
		c-0.4-1.6-0.9-3.2-1.5-4.8c-1.3-3.2-3.2-6.4-5.4-9c-4.3-5.3-9.5-8.5-16.4-10.6c-3.3-1-6.7-1.3-9.8-1.3c-2,0.1-2.4,0.2-3.7,0.3
		c-4,0.4-9.7,2.5-10.3,2.9c-1.6,0.7-3.3,1.6-4.9,2.4l-2.9,1.7c-3.7,2.4-6.2,4.3-8.6,6.2c-18.1,14.6-31.5,28.1-46,42.3
		c-14.2,14-28,28.2-41.7,42.4c-54.9,56.7-107.8,114.5-160,173.1c-51,56.7-101,114.2-150.2,172.5l-121.3,4.3c-0.6,0-1.3,0.1-1.9,0.1
		c-21.7,1.6-37.9,20.6-36.3,42.3c1.6,21.7,20.6,38,42.3,36.3l1086.7-95.6c4.8-0.4,8.5-4.4,8.4-9.3
		C1304.5,416.9,1300.4,413,1295.3,413.1z"/>
	<g>
		<path d="M15,730.8h27.6l45.5,78.8h1.7l45.5-78.8h27.8v148.8h-27.8v-73.4l1.7-24.9h-1.7L97.5,848H80.6l-38-66.7h-1.7l1.7,24.9v73.4
			H15V730.8z"/>
		<path d="M249.4,868.8h-1.7c-3.2,3.9-7,7.2-11.5,10c-4.5,2.8-10.3,4.2-17.4,4.2c-5.3,0-10.2-0.9-14.9-2.6
			c-4.6-1.7-8.7-4.1-12.2-7.2c-3.5-3-6.2-6.7-8.1-11c-1.9-4.3-2.9-9-2.9-14.1c0-5.3,1-10,3.1-14.2c2.1-4.2,5-7.9,8.7-10.9
			c3.7-3,8.1-5.4,13.2-7c5.1-1.6,10.6-2.4,16.5-2.4c6.6,0,12.1,0.5,16.4,1.6c4.3,1,7.8,2.1,10.6,3.2v-3.1c0-5.4-2.1-9.9-6.4-13.4
			c-4.3-3.5-9.6-5.3-16-5.3c-9.4,0-17.4,3.9-23.9,11.8l-19.7-13.5c10.8-13.6,25.6-20.4,44.3-20.4c15.8,0,27.8,3.7,36.2,11.1
			c8.3,7.4,12.5,18.4,12.5,32.9v61.1h-26.8V868.8z M249.4,838.2c-3.2-1.5-6.5-2.7-9.9-3.6c-3.4-0.9-7.1-1.3-11.1-1.3
			c-6.5,0-11.5,1.4-15.1,4.3c-3.5,2.8-5.3,6.3-5.3,10.5c0,4.2,1.7,7.5,5.1,10c3.4,2.5,7.3,3.7,11.7,3.7c3.6,0,6.9-0.7,10-2
			c3-1.3,5.6-3,7.8-5.2c2.1-2.1,3.8-4.6,5-7.5C248.8,844.2,249.4,841.3,249.4,838.2z"/>
		<path d="M323.3,793.5h1.7c2.8-5.1,6.8-9.2,12.2-12.4c5.3-3.1,11.3-4.7,17.8-4.7c2.4,0,4.2,0.1,5.6,0.2c1.4,0.1,2.7,0.4,3.9,0.8v27
			c-1.5-0.7-3.2-1.2-5.1-1.7c-1.9-0.4-4.1-0.6-6.8-0.6c-8.6,0-15.3,2.6-20.3,7.8c-4.9,5.2-7.4,12.3-7.4,21.3v49.9h-27.2V779.4h25.6
			V793.5z M394.6,801h-17.9v-23.3h17.9v-31.2h27.2v31.2h24.9V801h-24.9v40.7c0,2.4,0.2,4.7,0.7,6.7c0.5,2.1,1.4,3.8,2.8,5.2
			c1.9,2.3,4.7,3.4,8.3,3.4c2.4,0,4.2-0.2,5.6-0.7c1.4-0.5,2.7-1.1,3.9-2l7.7,23.9c-3.2,1.5-6.6,2.7-10.3,3.4
			c-3.7,0.8-7.7,1.1-12.2,1.1c-5.1,0-9.7-0.8-13.8-2.4c-4.1-1.6-7.5-3.9-10.3-6.7c-6.5-6.4-9.8-15.4-9.8-27.2V801z"/>
		<path d="M469.4,879.6V777.8h27.2v101.8H469.4z M471.7,757.4l8.7-28.3h31.8l-18.7,28.3H471.7z"/>
		<path d="M547.1,791.1h1.7c3.2-5.1,7.5-9.2,12.9-12.2c5.4-3,11.6-4.5,18.5-4.5c6.4,0,12,1,16.8,3.1c4.8,2.1,8.8,5,11.9,8.8
			c3.1,3.8,5.5,8.4,7.1,13.7c1.6,5.3,2.4,11.3,2.4,17.8v61.7h-27.2v-58.4c0-7.3-1.6-12.8-4.9-16.3c-3.3-3.5-8-5.3-14.2-5.3
			c-3.7,0-7,0.8-9.9,2.4c-2.8,1.6-5.3,3.7-7.3,6.4c-2,2.7-3.5,5.9-4.6,9.6c-1,3.7-1.6,7.6-1.6,11.7v49.9h-27.2V777.8h25.6V791.1z"/>
		<path d="M689.9,879.6V730.8h52.4c7.1,0,13.7,1.1,19.8,3.4c6.2,2.3,11.5,5.5,16.1,9.7c4.6,4.2,8.2,9.1,10.8,14.9
			c2.6,5.8,3.9,12.1,3.9,19c0,7.1-1.3,13.5-3.9,19.2c-2.6,5.8-6.2,10.7-10.8,14.9c-4.6,4.2-9.9,7.4-16.1,9.7
			c-6.2,2.3-12.8,3.4-19.8,3.4h-24.3v54.7H689.9z M742.7,798.3c7.3,0,12.9-2.1,16.6-6.2s5.6-8.9,5.6-14.3c0-2.6-0.5-5.2-1.4-7.7
			c-0.9-2.5-2.3-4.7-4.2-6.5c-1.9-1.9-4.2-3.4-7-4.5c-2.8-1.1-6-1.7-9.8-1.7h-24.7v40.9H742.7z"/>
		<path d="M824.7,764c-2.4,0-4.6-0.4-6.8-1.4c-2.1-0.9-4-2.1-5.6-3.7c-1.6-1.6-2.8-3.4-3.7-5.5c-0.9-2.1-1.4-4.4-1.4-6.9
			s0.4-4.8,1.4-6.9c0.9-2.1,2.1-3.9,3.7-5.5c1.6-1.6,3.5-2.8,5.6-3.7c2.1-0.9,4.4-1.3,6.8-1.3c4.8,0,9,1.7,12.5,5.1
			c3.5,3.4,5.2,7.5,5.2,12.4c0,4.9-1.7,9-5.2,12.4C833.7,762.3,829.6,764,824.7,764z M811.2,879.6V777.8h27.2v101.8H811.2z"/>
		<path d="M903.7,882.9c-6.6,0-12.6-0.8-17.8-2.5c-5.2-1.7-9.7-3.8-13.5-6.5c-3.8-2.7-7-5.8-9.7-9.3c-2.6-3.5-4.6-7.1-6-10.7
			l24.3-10.4c2.4,5.3,5.5,9.2,9.5,11.7c3.9,2.6,8.3,3.8,13.2,3.8c5,0,8.9-0.9,11.8-2.7c2.9-1.8,4.4-3.9,4.4-6.4c0-2.8-1.2-5-3.6-6.8
			c-2.4-1.7-6.6-3.3-12.6-4.7l-14.3-3.1c-3.2-0.7-6.5-1.8-9.9-3.3c-3.4-1.5-6.5-3.5-9.2-5.8c-2.8-2.4-5.1-5.2-6.9-8.5
			c-1.8-3.3-2.7-7.2-2.7-11.6c0-5,1.1-9.4,3.2-13.3c2.1-3.9,5.1-7.2,8.8-9.9c3.7-2.7,8.1-4.8,13.2-6.2c5.1-1.5,10.5-2.2,16.3-2.2
			c9.7,0,18.4,1.9,26,5.7c7.6,3.8,13.2,9.9,16.8,18.2l-23.5,9.6c-1.9-4-4.8-6.9-8.5-8.7c-3.7-1.8-7.5-2.7-11.2-2.7
			c-3.9,0-7.3,0.8-10.2,2.4c-2.9,1.6-4.4,3.6-4.4,6.1c0,2.4,1.2,4.2,3.6,5.6c2.4,1.4,5.7,2.6,9.9,3.7l15.6,3.7
			c10.4,2.5,18.1,6.5,23.2,11.9c5.1,5.5,7.6,11.9,7.6,19.4c0,4.4-1,8.7-3.1,12.7c-2.1,4-5,7.6-8.8,10.7c-3.8,3.1-8.4,5.6-13.7,7.4
			C916.1,882,910.2,882.9,903.7,882.9z"/>
		<path d="M1061.4,853.6c-4.4,8.6-10.6,15.6-18.6,21.1c-8,5.5-17.9,8.2-29.8,8.2c-7.9,0-15.1-1.4-21.7-4.1
			c-6.6-2.7-12.3-6.5-17-11.3c-4.8-4.8-8.5-10.6-11.2-17.1c-2.7-6.6-4.1-13.8-4.1-21.7s1.4-15.2,4.1-21.8
			c2.7-6.7,6.4-12.4,11.2-17.1s10.5-8.5,17-11.2c6.6-2.7,13.8-4.1,21.7-4.1c11.8,0,21.7,2.7,29.7,8.1c8,5.4,13.9,12.4,17.7,21
			l-24.9,10.4c-2.4-4.7-5.4-8.3-9-10.7c-3.7-2.4-8.3-3.6-13.8-3.6c-3.6,0-7,0.7-10.2,2.1c-3.2,1.4-6,3.3-8.4,5.8
			c-2.4,2.5-4.3,5.5-5.7,9.1c-1.4,3.6-2.1,7.6-2.1,12.1c0,4.4,0.7,8.5,2.1,12.1c1.4,3.6,3.3,6.6,5.7,9.1c2.4,2.5,5.2,4.4,8.4,5.8
			c3.2,1.4,6.6,2.1,10.2,2.1c5.7,0,10.5-1.3,14.4-3.8c3.9-2.6,7.1-6.3,9.5-11.1L1061.4,853.6z"/>
		<path d="M1093.2,764c-2.4,0-4.6-0.4-6.8-1.4c-2.1-0.9-4-2.1-5.6-3.7c-1.6-1.6-2.8-3.4-3.7-5.5c-0.9-2.1-1.4-4.4-1.4-6.9
			s0.4-4.8,1.4-6.9c0.9-2.1,2.1-3.9,3.7-5.5c1.6-1.6,3.5-2.8,5.6-3.7c2.1-0.9,4.4-1.3,6.8-1.3c4.8,0,9,1.7,12.5,5.1
			c3.5,3.4,5.2,7.5,5.2,12.4c0,4.9-1.7,9-5.2,12.4C1102.2,762.3,1098.1,764,1093.2,764z M1079.7,879.6V777.8h27.2v101.8H1079.7z"/>
		<path d="M1142,801h-17.9v-23.3h17.9v-31.2h27.2v31.2h24.9V801h-24.9v40.7c0,2.4,0.2,4.7,0.7,6.7c0.5,2.1,1.4,3.8,2.8,5.2
			c1.9,2.3,4.7,3.4,8.3,3.4c2.4,0,4.2-0.2,5.6-0.7c1.4-0.5,2.7-1.1,3.9-2l7.7,23.9c-3.2,1.5-6.6,2.7-10.3,3.4
			c-3.7,0.8-7.7,1.1-12.2,1.1c-5.1,0-9.7-0.8-13.8-2.4c-4.1-1.6-7.5-3.9-10.3-6.7c-6.5-6.4-9.8-15.4-9.8-27.2V801z"/>
		<path d="M1309.5,855.1c-4.7,8.3-11,15-19,20.2c-8,5.1-17.7,7.7-29.2,7.7c-7.8,0-14.9-1.4-21.5-4.1c-6.6-2.7-12.3-6.5-17.1-11.3
			c-4.9-4.8-8.6-10.6-11.3-17.1c-2.7-6.6-4.1-13.8-4.1-21.7c0-7.3,1.3-14.3,3.9-20.9c2.6-6.6,6.3-12.3,11-17.2
			c4.7-4.9,10.3-8.8,16.7-11.7c6.4-2.9,13.5-4.4,21.3-4.4c8.2,0,15.4,1.3,21.8,4.1c6.4,2.7,11.7,6.4,16,11.2
			c4.3,4.8,7.5,10.4,9.8,16.9c2.2,6.5,3.3,13.6,3.3,21.2c0,1,0,1.8,0,2.5c-0.1,0.8-0.2,1.6-0.2,2.3c-0.1,0.7-0.2,1.5-0.2,2.3h-76.7
			c0.6,4.2,1.7,7.7,3.4,10.7c1.7,3,3.9,5.5,6.4,7.5c2.6,2,5.4,3.5,8.4,4.4c3,0.9,6.2,1.4,9.4,1.4c6.2,0,11.4-1.4,15.5-4.3
			c4.1-2.8,7.3-6.4,9.7-10.7L1309.5,855.1z M1284.8,815.6c-0.1-1.8-0.7-3.8-1.8-6c-1-2.2-2.6-4.3-4.6-6.2c-2-1.9-4.5-3.5-7.5-4.8
			c-3-1.2-6.5-1.9-10.7-1.9c-5.8,0-10.9,1.7-15.4,5c-4.4,3.3-7.6,8-9.4,13.9H1284.8z"/>
		<path d="M1328.6,879.6V730.8h27.2v148.8H1328.6z"/>
		<path d="M1379.1,879.6V730.8h27.2v148.8H1379.1z"/>
		<path d="M1444.8,764c-2.4,0-4.6-0.4-6.8-1.4c-2.1-0.9-4-2.1-5.6-3.7c-1.6-1.6-2.8-3.4-3.7-5.5c-0.9-2.1-1.4-4.4-1.4-6.9
			s0.4-4.8,1.4-6.9c0.9-2.1,2.1-3.9,3.7-5.5c1.6-1.6,3.5-2.8,5.6-3.7c2.1-0.9,4.4-1.3,6.8-1.3c4.8,0,9,1.7,12.5,5.1
			c3.5,3.4,5.2,7.5,5.2,12.4c0,4.9-1.7,9-5.2,12.4C1453.8,762.3,1449.6,764,1444.8,764z M1431.3,879.6V777.8h27.2v101.8H1431.3z"/>
		<path class="st0" d="M342.6,1128.9h-19.1V980.1h19.1V1128.9z"/>
		<path class="st0" d="M388.4,980.1v148.8h-19.1V980.1H388.4z"/>
		<path class="st0" d="M501,1128.9h-18.3v-14.1h-0.8c-2.9,5-7.4,9.1-13.4,12.5c-6,3.3-12.3,5-18.8,5c-12.5,0-22.1-3.6-28.8-10.7
			c-6.7-7.1-10.1-17.3-10.1-30.4v-64h19.1v62.8c0.4,16.6,8.8,24.9,25.1,24.9c7.6,0,14-3.1,19.1-9.2c5.1-6.2,7.7-13.5,7.7-22.1v-56.3
			H501V1128.9z"/>
		<path class="st0" d="M601.1,1100.7c0,8.9-3.9,16.3-11.6,22.4c-7.8,6.1-17.5,9.1-29.3,9.1c-10.3,0-19.3-2.7-27-8
			c-7.8-5.3-13.3-12.4-16.6-21.1l17-7.3c2.5,6.1,6.1,10.8,10.9,14.2c4.8,3.4,10,5.1,15.7,5.1c6.1,0,11.2-1.3,15.3-3.9
			c4.1-2.6,6.1-5.7,6.1-9.3c0-6.5-5-11.3-15-14.3l-17.5-4.4c-19.8-5-29.7-14.5-29.7-28.7c0-9.3,3.8-16.7,11.3-22.3
			c7.5-5.6,17.2-8.4,29-8.4c9,0,17.1,2.2,24.4,6.4c7.3,4.3,12.4,10,15.3,17.2l-17,7.1c-1.9-4.3-5.1-7.7-9.5-10.1
			c-4.4-2.4-9.2-3.6-14.6-3.6c-5,0-9.5,1.2-13.4,3.7c-3.9,2.5-5.9,5.5-5.9,9.1c0,5.8,5.5,10,16.4,12.5l15.4,3.9
			C591,1075.1,601.1,1085.3,601.1,1100.7z"/>
		<path class="st0" d="M657,1130.6c-8.3,0-15.2-2.6-20.7-7.7c-5.5-5.1-8.3-12.3-8.4-21.4v-56.9h-17.9v-17.5H628v-31.2h19.1v31.2H672
			v17.5h-24.9v50.7c0,6.8,1.3,11.4,3.9,13.8c2.6,2.4,5.6,3.6,8.9,3.6c1.5,0,3-0.2,4.5-0.5c1.5-0.3,2.8-0.8,4.1-1.3l6,17
			C669.5,1129.7,663.7,1130.6,657,1130.6z"/>
		<path class="st0" d="M709.4,1128.9h-19.1v-101.8h18.3v16.6h0.8c1.9-5.4,5.9-10,11.9-13.8c6-3.8,11.9-5.7,17.8-5.7
			c5.5,0,10.2,0.8,14.1,2.5l-5.8,18.5c-2.4-1-6.1-1.5-11.2-1.5c-7.2,0-13.5,2.9-18.8,8.7c-5.3,5.8-8,12.6-8,20.4V1128.9z"/>
		<path class="st0" d="M800.2,1023.8c14.1,0,25.3,3.8,33.5,11.3c8.2,7.6,12.3,17.9,12.3,31.1v62.8h-18.3v-14.1h-0.8
			c-7.9,11.6-18.4,17.5-31.6,17.5c-11.2,0-20.6-3.3-28.2-10c-7.6-6.6-11.3-15-11.3-24.9c0-10.5,4-18.9,11.9-25.1
			c8-6.2,18.6-9.4,31.9-9.4c11.4,0,20.7,2.1,28.1,6.2v-4.4c0-6.6-2.6-12.3-7.9-16.9c-5.3-4.6-11.4-7-18.5-7
			c-10.7,0-19.1,4.5-25.4,13.5l-16.8-10.6C768.3,1030.4,782.1,1023.8,800.2,1023.8z M775.5,1097.8c0,5,2.1,9.1,6.3,12.5
			c4.2,3.3,9.2,5,14.9,5c8,0,15.2-3,21.5-8.9c6.3-6,9.5-13,9.5-21c-6-4.7-14.3-7.1-24.9-7.1c-7.8,0-14.2,1.9-19.4,5.6
			C778.1,1087.6,775.5,1092.2,775.5,1097.8z"/>
		<path class="st0" d="M909.1,1132.3c-13.3,0-24.7-5.3-34.3-15.8c-9.4-10.7-14.1-23.5-14.1-38.4c0-15,4.7-27.8,14.1-38.4
			c9.6-10.5,21-15.8,34.3-15.8c7.5,0,14.3,1.6,20.5,4.8c6.2,3.2,10.9,7.4,14.2,12.7h0.8l-0.8-14.1v-47h19.1v148.8h-18.3v-14.1h-0.8
			c-3.3,5.3-8.1,9.5-14.2,12.7C923.4,1130.7,916.6,1132.3,909.1,1132.3z M912.2,1114.8c9.4,0,17.1-3.4,23.1-10.2
			c6.2-6.8,9.4-15.7,9.4-26.6c0-10.7-3.1-19.5-9.4-26.4c-6.1-6.9-13.8-10.4-23.1-10.4c-9.1,0-16.8,3.5-23.1,10.4
			c-6.2,6.9-9.4,15.7-9.4,26.4c0,10.8,3.1,19.6,9.4,26.4C895.4,1111.3,903.1,1114.8,912.2,1114.8z"/>
		<path class="st0" d="M979.3,1078c0-15.7,4.9-28.6,14.8-38.9c10-10.2,22.5-15.4,37.6-15.4c15.1,0,27.6,5.1,37.4,15.4
			c10,10.3,15,23.2,15,38.9c0,15.8-5,28.7-15,38.9c-9.8,10.3-22.3,15.4-37.4,15.4c-15.1,0-27.6-5.1-37.6-15.4
			C984.3,1106.6,979.3,1093.7,979.3,1078z M998.5,1078c0,10.9,3.2,19.8,9.6,26.6c6.4,6.8,14.3,10.2,23.7,10.2
			c9.4,0,17.3-3.4,23.7-10.2c6.4-6.8,9.6-15.7,9.6-26.6c0-10.8-3.2-19.6-9.6-26.4c-6.5-6.9-14.4-10.4-23.7-10.4
			c-9.3,0-17.2,3.5-23.7,10.4C1001.6,1058.4,998.5,1067.2,998.5,1078z"/>
		<path class="st0" d="M1118.6,1128.9h-19.1v-101.8h18.3v16.6h0.8c1.9-5.4,5.9-10,11.9-13.8c6-3.8,11.9-5.7,17.8-5.7
			c5.5,0,10.2,0.8,14.1,2.5l-5.8,18.5c-2.4-1-6.1-1.5-11.2-1.5c-7.2,0-13.5,2.9-18.8,8.7c-5.3,5.8-8,12.6-8,20.4V1128.9z"/>
	</g>
</g>
</svg>
